<svg data-name="Слой 2" xmlns="http://www.w3.org/2000/svg" viewBox="0 0 169.77 181.9"><g data-name="Слой 1"><path d="M95.01 156.01l-10.67-10.67-17.22 17.16a28.678 28.678 0 0 1-4.73 3.82l11.15 11.15c2.86 2.85 6.68 4.43 10.74 4.43s7.88-1.58 10.73-4.43c5.88-5.94 5.88-15.52 0-21.46zm-70.76 6.43L7.09 145.28c-2.42-2.43-4.3-5.1-5.7-8.01-3.03 8.49-1.09 18.37 5.7 25.17 4.61 4.6 10.67 7.15 17.16 7.15 2.79 0 5.52-.48 8.07-1.39-2.98-1.4-5.7-3.34-8.07-5.76zm132.91-72.88L79.97 12.43c-1.33-1.39-3.27-2.06-5.15-1.76-1.94.31-3.58 1.46-4.49 3.15L35.59 79.49l54.63 54.63L155.7 99.2c1.7-.85 2.86-2.55 3.16-4.43.3-1.94-.37-3.82-1.7-5.21zM32.8 93.86l-17.16 17.16c-7.03 7.09-7.03 18.68 0 25.71l17.16 17.16c7.09 7.09 18.68 7.09 25.77 0l17.16-17.1L32.8 93.86z" fill="#c00"/><path d="M115.2 6.07v12.12c0 3.35-2.71 6.07-6.06 6.07s-6.07-2.72-6.07-6.07V6.07c0-3.35 2.72-6.07 6.07-6.07s6.06 2.72 6.06 6.07zm34.6 22.47l-12.12 12.13c-1.19 1.18-2.74 1.77-4.29 1.77s-3.1-.59-4.29-1.77a6.066 6.066 0 0 1 0-8.58l12.13-12.12c2.37-2.37 6.21-2.37 8.57 0a6.054 6.054 0 0 1 0 8.57zm19.97 32.09c0 3.35-2.71 6.07-6.06 6.07h-12.13c-3.35 0-6.06-2.72-6.06-6.07s2.71-6.06 6.06-6.06h12.13c3.35 0 6.06 2.72 6.06 6.06z" fill="#fff"/></g></svg>