<?xml version="1.0" encoding="UTF-8"?>
<svg id="_Слой_2" data-name="Слой 2" xmlns="http://www.w3.org/2000/svg" viewBox="0 0 114.12 183.2">
  <defs>
    <style>
      .cls-1 {
        fill: #fff;
      }

      .cls-2 {
        fill: #c00;
      }
    </style>
  </defs>
  <g id="_Слой_1-2" data-name="Слой 1">
    <g>
      <g>
        <path class="cls-2" d="M83.75,139.31c0,3.16-1.71,5.72-3.82,5.72H34.19c-2.11,0-3.81-2.57-3.81-5.72s1.71-5.72,3.81-5.72h45.75c2.11,0,3.82,2.57,3.82,5.72Z"/>
        <path class="cls-2" d="M83.75,158.39c0,3.16-1.71,5.72-3.82,5.72H34.19c-2.11,0-3.81-2.57-3.81-5.72s1.71-5.72,3.81-5.72h45.75c2.11,0,3.82,2.57,3.82,5.72Z"/>
        <path class="cls-2" d="M74.47,177.47c0,3.16-1.71,5.72-3.82,5.72h-27.19c-2.11,0-3.81-2.57-3.81-5.72s1.71-5.72,3.81-5.72h27.19c2.11,0,3.82,2.57,3.82,5.72Z"/>
        <path class="cls-2" d="M113.96,63.69c-1,12.48-6.38,21.64-8.4,25.08-2.11,3.66-4.85,7.51-8.01,11.97-1.09,1.53-2.01,2.79-2.81,3.9-2.23,3.05-3.45,4.73-4.78,7.36-1.7,3.37-2.9,6.97-3.58,10.68-.34,1.81-1.91,3.12-3.75,3.12H31.5c-1.81,0-3.37-1.28-3.74-3.06-.75-3.74-1.98-7.38-3.63-10.82-1.21-2.53-2.39-4.13-4.53-7.02-.86-1.17-1.86-2.5-3.01-4.14-4.6-6.48-6.89-10.09-8.04-11.98-1.82-3.06-7.36-12.36-8.39-25.09-.94-11.57,2.38-20.37,4.17-25.1,1.4-3.72,4.7-12.45,12.59-20.81C25.29,8.92,35.24,3.29,46.48,1.04c6.98-1.38,14.17-1.38,21.16,0,11.26,2.25,21.2,7.89,29.56,16.75,7.92,8.4,11.19,17.1,12.59,20.81,1.77,4.72,5.08,13.49,4.17,25.09Z"/>
      </g>
      <path class="cls-1" d="M79.44,61.56c6.55,3.87,9.83,9.72,9.83,17.54,0,6.93-2.38,12.47-7.15,16.64-4.77,4.17-11.13,6.26-19.1,6.26H30.07V23.8h30.83c7.82,0,14.07,1.99,18.77,5.98,4.69,3.98,7.04,9.4,7.04,16.25s-2.42,11.73-7.26,15.53Zm-19.1-19.88h-10.28v12.29h10.28c1.79,0,3.3-.54,4.52-1.62,1.23-1.08,1.84-2.59,1.84-4.52s-.6-3.35-1.79-4.47c-1.19-1.12-2.72-1.68-4.58-1.68Zm2.12,42.45c2.01,0,3.65-.61,4.91-1.84,1.27-1.23,1.9-2.81,1.9-4.75s-.63-3.61-1.9-4.8c-1.27-1.19-2.9-1.79-4.91-1.79h-12.4v13.18h12.4Z"/>
    </g>
  </g>
</svg>