<?xml version="1.0" encoding="UTF-8"?>
<svg id="_Слой_2" data-name="Слой 2" xmlns="http://www.w3.org/2000/svg" viewBox="0 0 182.52 182.15">
  <defs>
    <style>
      .cls-1 {
        fill: #fff;
      }

      .cls-2 {
        fill: #c00;
      }
    </style>
  </defs>
  <g id="_Слой_1-2" data-name="Слой 1">
    <g>
      <path class="cls-1" d="M94.52,182.15c13.96-1.98,26.19-16.55,33.89-38.06-11.13-2.49-22.49-3.83-33.89-3.99v42.05Z"/>
      <path class="cls-2" d="M116.82,178.73c.83-.24,1.65-.48,2.46-.74,.69-.22,1.37-.46,2.05-.7,.8-.28,1.6-.56,2.4-.86,.68-.26,1.35-.53,2.02-.81,.78-.33,1.55-.65,2.32-.98,.67-.29,1.34-.6,2-.91,.75-.36,1.5-.72,2.25-1.09,.65-.33,1.3-.67,1.96-1.02,.73-.39,1.46-.79,2.18-1.2,.65-.37,1.28-.74,1.92-1.12,.71-.43,1.41-.87,2.11-1.3,.63-.4,1.25-.8,1.87-1.22,.69-.46,1.37-.95,2.04-1.43,.61-.43,1.21-.87,1.8-1.3,.65-.5,1.32-1.02,1.98-1.55,.58-.46,1.16-.92,1.73-1.4,.65-.54,1.28-1.1,1.91-1.66,.55-.49,1.11-.98,1.65-1.48,.62-.58,1.23-1.18,1.84-1.78,.53-.52,1.06-1.03,1.57-1.56,.1-.1,.19-.21,.29-.31-7.11-3.67-14.61-6.56-22.35-8.6-4.03,12.84-11.19,24.48-20.85,33.85,.26-.07,.53-.12,.79-.19,.7-.2,1.38-.41,2.06-.61Z"/>
      <path class="cls-2" d="M182.52,94.34h-39.11c-.15,15.27-2.36,30.45-6.59,45.13,8.61,2.3,16.92,5.61,24.76,9.85,12.87-15.51,20.23-34.84,20.94-54.98Z"/>
      <path class="cls-2" d="M94.52,87.81h42.36c-.17-14.73-2.33-29.37-6.42-43.52-11.8,2.69-23.84,4.13-35.94,4.29v39.24Z"/>
      <path class="cls-2" d="M94.52,0V42.05c11.4-.16,22.76-1.5,33.89-3.99C120.71,16.55,108.48,1.98,94.52,0Z"/>
      <path class="cls-2" d="M94.52,133.58c12.1,.16,24.14,1.6,35.94,4.29,4.09-14.15,6.26-28.79,6.42-43.52h-42.36v39.24Z"/>
      <path class="cls-1" d="M161.58,32.83c-7.84,4.24-16.15,7.55-24.76,9.85,4.22,14.68,6.44,29.86,6.59,45.13h39.11c-.71-20.14-8.08-39.47-20.94-54.98Z"/>
      <path class="cls-2" d="M157.17,27.89c-.1-.1-.19-.2-.28-.3-.52-.53-1.05-1.04-1.58-1.56-.61-.6-1.21-1.2-1.83-1.78-.54-.5-1.1-.98-1.65-1.48-.63-.56-1.26-1.13-1.91-1.67-.56-.48-1.14-.93-1.72-1.39-.65-.53-1.32-1.05-1.99-1.56-.59-.44-1.19-.87-1.79-1.3-.68-.49-1.37-.98-2.06-1.45-.61-.41-1.23-.81-1.85-1.21-.71-.45-1.41-.9-2.13-1.33-.63-.38-1.26-.75-1.9-1.11-.73-.42-1.46-.82-2.2-1.22-.65-.33-1.3-.68-1.96-1.01-.75-.38-1.51-.74-2.28-1.1-.65-.31-1.32-.61-1.99-.91-.77-.34-1.55-.65-2.33-.98-.67-.27-1.34-.54-2.02-.8-.79-.3-1.59-.59-2.4-.86-.68-.24-1.36-.48-2.05-.7-.82-.26-1.63-.5-2.47-.75-.68-.2-1.36-.4-2.05-.58-.26-.07-.53-.13-.79-.2,9.66,9.37,16.82,21.01,20.85,33.85,7.75-2.04,15.26-4.93,22.38-8.61Z"/>
      <path class="cls-2" d="M0,87.81H39.11c.15-15.27,2.36-30.45,6.58-45.13-8.61-2.3-16.92-5.6-24.75-9.85C8.08,48.34,.71,67.68,0,87.81Z"/>
      <path class="cls-2" d="M88,182.15v-42.05c-11.4,.16-22.76,1.5-33.89,3.99,7.7,21.51,19.93,36.08,33.89,38.06Z"/>
      <path class="cls-2" d="M88,94.34H45.64c.17,14.73,2.33,29.37,6.42,43.52,11.8-2.69,23.84-4.13,35.94-4.29v-39.24Z"/>
      <path class="cls-1" d="M88,0c-13.96,1.98-26.19,16.55-33.89,38.06,11.13,2.49,22.49,3.83,33.89,3.99V0Z"/>
      <path class="cls-2" d="M88,48.58c-12.1-.16-24.14-1.6-35.94-4.29-4.1,14.15-6.26,28.79-6.42,43.52h42.36V48.58Z"/>
      <path class="cls-2" d="M68.55,2.64c-.26,.07-.53,.12-.79,.19-.69,.18-1.37,.39-2.06,.59-.82,.24-1.63,.48-2.45,.74-.69,.22-1.37,.46-2.06,.7-.8,.28-1.6,.56-2.39,.86-.68,.26-1.35,.53-2.03,.81-.78,.33-1.55,.65-2.32,.98-.67,.29-1.34,.6-2,.91-.75,.36-1.5,.72-2.25,1.09-.65,.33-1.31,.67-1.96,1.02-.73,.39-1.46,.79-2.18,1.2-.65,.36-1.29,.74-1.92,1.12-.71,.43-1.41,.87-2.11,1.3-.63,.4-1.25,.81-1.87,1.22-.69,.46-1.37,.95-2.04,1.43-.61,.43-1.21,.87-1.8,1.31-.67,.5-1.3,1.02-1.98,1.54-.58,.46-1.16,.92-1.73,1.4-.65,.54-1.27,1.1-1.9,1.65-.56,.5-1.12,.98-1.66,1.49-.62,.58-1.22,1.18-1.83,1.77-.53,.52-1.06,1.03-1.58,1.57-.09,.1-.18,.21-.28,.31,7.11,3.68,14.61,6.56,22.35,8.6,4.03-12.83,11.19-24.46,20.84-33.83Z"/>
      <path class="cls-2" d="M27.2,156.13c.61,.6,1.21,1.2,1.83,1.78,.54,.5,1.1,.98,1.65,1.48,.63,.56,1.26,1.13,1.91,1.67,.56,.47,1.14,.93,1.72,1.39,.65,.53,1.3,1.05,2,1.56,.59,.44,1.18,.87,1.78,1.31,.68,.49,1.37,.98,2.06,1.45,.61,.41,1.23,.81,1.85,1.21,.71,.45,1.41,.9,2.13,1.33,.63,.38,1.26,.75,1.9,1.11,.73,.42,1.46,.82,2.2,1.22,.65,.33,1.3,.68,1.96,1.01,.75,.38,1.51,.74,2.28,1.1,.65,.31,1.32,.61,1.99,.91,.77,.34,1.55,.65,2.33,.98,.67,.27,1.34,.54,2.02,.8,.79,.3,1.59,.59,2.4,.86,.68,.24,1.36,.48,2.05,.7,.82,.26,1.63,.51,2.47,.75,.68,.2,1.36,.4,2.05,.58,.26,.07,.53,.13,.8,.2-9.66-9.38-16.82-21.01-20.85-33.85-7.74,2.04-15.24,4.93-22.35,8.61,.1,.1,.19,.2,.28,.3,.49,.53,1.02,1.04,1.55,1.56Z"/>
      <path class="cls-2" d="M20.94,149.32c7.84-4.24,16.15-7.55,24.75-9.85-4.22-14.68-6.44-29.86-6.58-45.13H0c.71,20.14,8.08,39.47,20.94,54.98Z"/>
    </g>
  </g>
</svg>