<svg width="530" height="346" viewBox="0 0 530 346" fill="none" xmlns="http://www.w3.org/2000/svg">
<rect width="530" height="346" rx="20" fill="black"/>
<mask id="mask0_115_4" style="mask-type:alpha" maskUnits="userSpaceOnUse" x="0" y="0" width="530" height="346">
<rect width="530" height="346" rx="20" fill="black"/>
</mask>
<g mask="url(#mask0_115_4)">
<path d="M396.691 194.694L396.68 194.7L396.669 194.706L331.206 232.865C331.206 232.865 331.206 232.865 331.206 232.865C314.135 242.8 292.333 236.839 282.533 219.691L282.533 219.691L249.264 161.537C239.442 144.356 245.299 122.304 262.314 112.392L262.314 112.392L316.55 80.7768C319.449 79.0873 323.158 80.0873 324.836 83.0193L367.453 157.534L367.834 157.316L367.453 157.534C369.437 161.003 373.879 162.158 377.289 160.036C380.603 157.974 381.477 153.525 379.558 150.171L336.633 75.1173C335.055 72.3579 335.832 68.8381 338.422 67.0265L338.154 66.6441L338.422 67.0265C383.252 35.6506 421.18 -4.31151 450.306 -50.9168L450.306 -50.917C461.127 -68.2454 486.337 -67.7821 496.508 -50.0055L587.615 109.308L587.615 109.308C597.786 127.055 585.604 149.369 565.3 150.166C504.873 152.544 447.664 168.406 396.691 194.694ZM424.986 274.52L424.987 274.521C430.737 284.568 427.31 297.472 417.354 303.274C414.871 304.721 412.725 305.993 410.841 307.111C406.932 309.429 404.15 311.079 401.822 312.229C398.413 313.914 396.032 314.5 392.562 314.5C385.405 314.5 378.378 310.79 374.469 303.963L343.253 249.388L342.819 249.636L343.253 249.388C341.574 246.454 342.575 242.701 345.478 241.01C356.044 234.853 361.795 231.5 366.666 228.66C372.18 225.445 376.566 222.887 385.534 217.664C388.435 215.974 392.149 216.977 393.823 219.911L424.986 274.52ZM626.927 -19.5019L627.361 -19.7501L626.927 -19.5017C628.606 -16.5679 627.607 -12.8179 624.706 -11.1267C621.015 -8.9756 618.086 -7.25465 615.741 -5.87744C612.235 -3.81752 610.038 -2.5266 608.559 -1.71539C607.323 -1.03757 606.627 -0.716492 606.109 -0.558807C605.613 -0.407921 605.269 -0.402 604.69 -0.401794C598.533 -0.401794 596.273 -8.70663 601.652 -11.8413L618.643 -21.7443C621.544 -23.4346 625.251 -22.4323 626.927 -19.5019ZM568.234 -60.7823L568.718 -60.6539L568.234 -60.7822L564.091 -45.1741C563.363 -42.4345 560.91 -40.6311 558.234 -40.6303C554.244 -40.6303 551.338 -44.4567 552.371 -48.3489L556.514 -63.957C557.383 -67.2294 560.709 -69.1632 563.944 -68.2903C567.178 -67.4152 569.104 -64.0565 568.234 -60.7823ZM550.608 -5.54507C568.667 1.06156 579.849 20.3725 576.517 39.6241C575.533 45.3108 568.113 46.6641 565.269 41.6943C557.885 28.7892 550.583 16.02 543.307 3.29468C540.472 -1.66348 545.316 -7.48115 550.608 -5.54507ZM633 52.4525C636.234 53.3269 638.161 56.6863 637.291 59.9605C636.564 62.7002 634.11 64.5043 631.435 64.5043C631.391 64.5043 631.35 64.5045 631.312 64.5047C631.09 64.5057 630.965 64.5063 630.712 64.465C630.395 64.4133 629.894 64.297 628.876 64.0308C627.723 63.7292 625.934 63.2429 623.048 62.4581C620.862 61.8636 618.046 61.0979 614.4 60.1117C611.167 59.2366 609.24 55.877 610.109 52.6037C610.978 49.3321 614.306 47.3981 617.538 48.2705L633 52.4525Z" stroke="#FF0000" stroke-opacity="0.2"/>
</g>
</svg>
