<?xml version="1.0" encoding="UTF-8"?>
<svg id="_Слой_2" data-name="Слой 2" xmlns="http://www.w3.org/2000/svg" xmlns:xlink="http://www.w3.org/1999/xlink" viewBox="0 0 845.22 845.22">
  <defs>
    <style>
      .cls-1 {
        opacity: .22;
      }

      .cls-2 {
        clip-path: url(#clippath);
      }

      .cls-3 {
        fill: none;
      }

      .cls-4 {
        fill: red;
      }
    </style>
    <clipPath id="clippath">
      <rect class="cls-3" x="0" y="0" width="845.22" height="845.22" transform="translate(845.22 845.22) rotate(-180)"/>
    </clipPath>
  </defs>
  <g id="_Слой_1-2" data-name="Слой 1">
    <rect x="0" y="0" width="845.22" height="845.22" transform="translate(845.22 845.22) rotate(-180)"/>
    <rect x="0" y="0" width="845.22" height="845.22" transform="translate(845.22 845.22) rotate(-180)"/>
    <g class="cls-2">
      <g class="cls-1">
        <path class="cls-4" d="M3382.71-291.16c2.49,0,5.02,.31,7.54,.96,16.04,4.15,25.68,20.52,21.53,36.56-1.2,4.65-30.39,115.5-110.13,255.51-46.8,82.18-101.44,157.39-162.38,223.55-76.41,82.94-163.01,151.8-257.37,204.65-130.25,72.95-276.95,116.33-436.02,128.94-88.73,7.03-182.81,4.55-279.64-7.39-103.14-12.71-212.16-36.48-324.04-70.66-271.25-82.86-519.79-114.07-740.17-114.07-297.29,0-543.41,56.75-725.4,120-179.2,62.28-316.39,137.25-399.92,189.17-69.2,43.01-113.42,77.31-130.33,91.02-5.92,32.97-23.3,144.37-16.26,283.34,7.65,151.09,46.59,366.98,188.66,537.41,169.31,203.11,447.07,300.78,825.64,290.31,420.29-11.63,713.85-126.2,872.52-340.52,106.21-143.47,130.48-306.65,132.14-418.27,1.82-122.43-22.35-211.72-22.59-212.61-2.86-10.37,.06-21.49,7.64-29.12,7.58-7.63,18.67-10.63,29.06-7.84,2.66,.72,269.06,72.88,544.88,195.15,162.81,72.17,297.31,147.54,399.77,224.02,61.71,46.06,112.52,93.18,151.01,140.04,43.46,52.91,72.47,107,86.22,160.76,31.45,122.99-14.78,244.85-137.42,362.2-11.97,11.45-30.96,11.04-42.42-.94-11.46-11.97-11.04-30.96,.94-42.42,107.31-102.68,146.82-202.11,120.78-303.96-40.99-160.34-249.35-327.9-602.54-484.55-203.15-90.11-401.22-152.63-489.28-178.72,7.1,40.45,14.89,102.5,13.96,176.67-.96,76.69-11.11,150.55-30.17,219.54-23.96,86.69-62.1,165.84-113.38,235.24-78.17,105.79-187.55,190-325.11,250.28-77,33.74-164.13,60.47-258.99,79.45-101.29,20.27-214.13,32.25-335.38,35.6-18.88,.52-37.58,.78-55.99,.78-369.75,0-644.62-105.15-817.66-312.97-67.7-81.31-119.42-178.47-153.71-288.77-27.24-87.63-43.6-183.7-48.61-285.55-8.52-172.99,18.34-301.6,19.49-306.99,1.36-6.38,4.76-12.14,9.68-16.41,2.07-1.8,51.85-44.73,145.77-103.11,86.12-53.53,227.48-130.8,411.9-194.89,207.13-71.99,425.36-113.09,648.62-122.16,31.48-1.28,63.11-1.92,94.8-1.92,248.94,0,503.89,39.39,759.38,117.44,391.13,119.49,725.18,104.06,992.86-45.85,201.43-112.81,327.04-282.8,396.94-405.54,75.82-133.14,103.9-239.79,104.18-240.85,3.5-13.52,15.68-22.49,29.02-22.49Z"/>
      </g>
    </g>
  </g>
</svg>