<svg width="530" height="346" viewBox="0 0 530 346" fill="none" xmlns="http://www.w3.org/2000/svg">
<rect width="530" height="346" rx="20" fill="black"/>
<mask id="mask0_115_5" style="mask-type:alpha" maskUnits="userSpaceOnUse" x="0" y="0" width="530" height="346">
<rect width="530" height="346" rx="20" fill="black"/>
</mask>
<g mask="url(#mask0_115_5)">
<mask id="path-3-inside-1_115_5" fill="white">
<path d="M375.46 91.9426C380.801 94.3244 390.551 97.878 401.537 98.4133C402.089 98.4218 402.679 98.4723 403.223 98.4639C404.896 98.3838 406.528 98.329 408.168 98.1225C409.803 97.9243 411.473 97.722 413.163 97.3047C414.023 97.1866 414.887 96.9421 415.764 96.7524C416.147 96.6555 416.493 96.529 416.889 96.4742L417.492 96.3604L418.369 96.0738L419.246 95.7871L419.684 95.6438L419.903 95.5721L420.013 95.5342L420.038 95.5258C420.295 95.3993 419.718 95.6859 419.785 95.6522L419.828 95.6354L421.147 95.0494C422.066 94.708 422.922 94.2864 423.782 93.8649C425.531 93.0513 427.095 92.0143 428.739 91.0321C430.294 89.9614 431.837 88.8274 433.254 87.5249C436.167 84.9956 438.738 81.8931 440.997 78.3184C445.504 71.1311 448.602 62.089 450.297 51.993C452.881 56.5204 466.104 93.359 432.115 109.694C414.149 118.331 399.033 116.62 388.477 112.678C385.202 114.044 381.724 115.393 378.162 116.763C360.382 123.605 338.251 132.124 322.683 150.554C299.077 178.502 302.508 226.082 314.492 255.914H523.35C541.413 220.555 559 155.275 559 79.6926C559 23.893 531.6 -10.4417 515.269 -25.946C494.681 -45.4845 469.747 -56.4868 448.4 -55.3739C442.688 -55.0788 435.644 -52.6002 429.911 -50.5641C418.289 -64.5888 399.783 -74.9082 384.064 -75.5152L371.536 -76L379.22 -19.0959L354.948 -6.89227L347.912 13.6031L293.866 57.7724L315.428 110.436L375.46 91.9426Z"/>
</mask>
<path d="M375.46 91.9426L375.867 91.0293L375.525 90.8764L375.166 90.987L375.46 91.9426ZM401.537 98.4133L401.488 99.4121L401.505 99.413L401.522 99.4132L401.537 98.4133ZM403.223 98.4639L403.238 99.4638L403.255 99.4635L403.271 99.4628L403.223 98.4639ZM408.168 98.1225L408.047 97.1297L408.043 97.1303L408.168 98.1225ZM413.163 97.3047L413.027 96.3139L412.975 96.3212L412.923 96.3338L413.163 97.3047ZM415.764 96.7524L415.975 97.7298L415.992 97.7262L416.009 97.722L415.764 96.7524ZM416.889 96.4742L417.026 97.4648L417.051 97.4614L417.075 97.4569L416.889 96.4742ZM417.492 96.3604L417.678 97.3431L417.741 97.331L417.803 97.3109L417.492 96.3604ZM418.369 96.0738L418.058 95.1233L418.369 96.0738ZM419.684 95.6438L419.373 94.6933L419.373 94.6933L419.684 95.6438ZM419.903 95.5721L420.214 96.5226L420.222 96.5199L420.231 96.5171L419.903 95.5721ZM420.013 95.5342L419.697 94.5854L419.686 94.5892L420.013 95.5342ZM420.038 95.5258L420.354 96.4745L420.419 96.453L420.48 96.4231L420.038 95.5258ZM419.785 95.6522L419.414 94.7237L419.375 94.7392L419.338 94.7578L419.785 95.6522ZM419.828 95.6354L420.199 96.5639L420.216 96.5569L420.233 96.5493L419.828 95.6354ZM421.147 95.0494L420.799 94.112L420.769 94.1229L420.741 94.1355L421.147 95.0494ZM423.782 93.8649L423.36 92.9581L423.351 92.9624L423.341 92.9669L423.782 93.8649ZM428.739 91.0321L429.252 91.8906L429.279 91.8741L429.306 91.8558L428.739 91.0321ZM433.254 87.5249L432.598 86.7698L432.587 86.7792L432.577 86.7888L433.254 87.5249ZM440.997 78.3184L441.843 78.8527L441.845 78.8496L440.997 78.3184ZM450.297 51.993L451.165 51.4973L449.775 49.0613L449.31 51.8275L450.297 51.993ZM432.115 109.694L431.682 108.792L431.682 108.793L432.115 109.694ZM388.477 112.678L388.827 111.742L388.457 111.603L388.093 111.755L388.477 112.678ZM378.162 116.763L377.803 115.83L377.803 115.83L378.162 116.763ZM322.683 150.554L321.919 149.909L321.919 149.909L322.683 150.554ZM314.492 255.914L313.564 256.287L313.816 256.914H314.492V255.914ZM523.35 255.914V256.914H523.962L524.241 256.369L523.35 255.914ZM515.269 -25.946L515.958 -26.6712L515.957 -26.6714L515.269 -25.946ZM448.4 -55.3739L448.451 -54.3752L448.452 -54.3753L448.4 -55.3739ZM429.911 -50.5641L429.141 -49.926L429.587 -49.3878L430.245 -49.6218L429.911 -50.5641ZM384.064 -75.5152L384.025 -74.516L384.025 -74.516L384.064 -75.5152ZM371.536 -76L371.574 -76.9993L370.385 -77.0453L370.545 -75.8662L371.536 -76ZM379.22 -19.0959L379.67 -18.2025L380.307 -18.5229L380.211 -19.2298L379.22 -19.0959ZM354.948 -6.89227L354.499 -7.78571L354.134 -7.60256L354.002 -7.21695L354.948 -6.89227ZM347.912 13.6031L348.545 14.3774L348.766 14.1972L348.858 13.9278L347.912 13.6031ZM293.866 57.7724L293.234 56.9981L292.66 57.4664L292.941 58.1513L293.866 57.7724ZM315.428 110.436L314.503 110.815L314.849 111.66L315.723 111.391L315.428 110.436ZM375.053 92.856C380.454 95.2645 390.332 98.8685 401.488 99.4121L401.585 97.4145C390.771 96.8875 381.148 93.3842 375.867 91.0293L375.053 92.856ZM401.522 99.4132C401.779 99.4171 402.043 99.4308 402.339 99.444C402.624 99.4566 402.934 99.4685 403.238 99.4638L403.207 97.464C402.968 97.4677 402.711 97.4585 402.427 97.4459C402.154 97.4338 401.847 97.418 401.552 97.4135L401.522 99.4132ZM403.271 99.4628C404.923 99.3837 406.604 99.3273 408.293 99.1146L408.043 97.1303C406.452 97.3307 404.87 97.3839 403.175 97.465L403.271 99.4628ZM408.288 99.1152C409.915 98.9181 411.644 98.7097 413.403 98.2755L412.923 96.3338C411.301 96.7343 409.691 96.9306 408.047 97.1297L408.288 99.1152ZM413.299 98.2954C414.207 98.1708 415.185 97.9008 415.975 97.7298L415.552 95.7751C414.589 95.9835 413.839 96.2025 413.027 96.3139L413.299 98.2954ZM416.009 97.722C416.523 97.5921 416.698 97.5103 417.026 97.4648L416.752 95.4836C416.289 95.5478 415.772 95.7189 415.519 95.7829L416.009 97.722ZM417.075 97.4569L417.678 97.3431L417.307 95.3778L416.704 95.4916L417.075 97.4569ZM417.803 97.3109L418.68 97.0243L418.058 95.1233L417.181 95.4099L417.803 97.3109ZM418.68 97.0243L419.557 96.7376L418.935 94.8366L418.058 95.1233L418.68 97.0243ZM419.557 96.7376L419.995 96.5943L419.373 94.6933L418.935 94.8366L419.557 96.7376ZM419.995 96.5943L420.214 96.5226L419.593 94.6216L419.373 94.6933L419.995 96.5943ZM420.231 96.5171L420.34 96.4791L419.686 94.5892L419.576 94.6272L420.231 96.5171ZM420.329 96.4829L420.354 96.4745L419.722 94.577L419.697 94.5854L420.329 96.4829ZM420.48 96.4231C420.512 96.407 420.529 96.3991 420.534 96.3964C420.536 96.3955 420.533 96.3967 420.529 96.3986C420.528 96.3992 420.526 96.4003 420.523 96.4017C420.521 96.4027 420.515 96.4055 420.507 96.4089C420.503 96.4106 420.496 96.4138 420.486 96.4176C420.481 96.4197 420.457 96.4296 420.426 96.4402C420.407 96.4465 420.351 96.4624 420.315 96.4711C420.223 96.4863 419.75 96.4283 419.422 96.2243C419.118 95.6558 419.309 94.8881 419.413 94.7713C419.452 94.7358 419.513 94.687 419.534 94.672C419.566 94.6496 419.593 94.6341 419.597 94.6316C419.607 94.626 419.615 94.6217 419.618 94.6195C419.626 94.6151 419.633 94.6118 419.635 94.6106C419.64 94.6078 419.644 94.6058 419.645 94.6054C419.647 94.6043 419.648 94.6038 419.646 94.6046C419.633 94.6112 419.591 94.6324 419.538 94.6589C419.486 94.6845 419.429 94.713 419.388 94.733C419.368 94.7431 419.353 94.7507 419.345 94.7547C419.343 94.7557 419.341 94.7562 419.341 94.7564C419.341 94.7566 419.341 94.7563 419.342 94.7559C419.343 94.7557 419.344 94.7552 419.345 94.7545C419.345 94.7543 419.35 94.752 419.356 94.7491C419.358 94.7482 419.363 94.7461 419.365 94.7449C419.369 94.7431 419.381 94.7381 419.388 94.735C419.404 94.7285 419.479 94.7014 419.54 94.6843C420.602 95.0863 420.48 96.3692 420.331 96.4896C420.308 96.504 420.276 96.523 420.267 96.5282C420.262 96.5309 420.254 96.5352 420.251 96.5369C420.246 96.5399 420.241 96.5421 420.24 96.5428C420.237 96.5446 420.234 96.546 420.233 96.5463C420.232 96.5468 420.232 96.5472 420.231 96.5473C420.23 96.5477 420.231 96.5477 420.233 96.5466L419.338 94.7578C419.336 94.7589 419.333 94.7603 419.331 94.7616C419.331 94.7616 419.326 94.7641 419.32 94.767C419.319 94.7677 419.314 94.77 419.309 94.773C419.305 94.7747 419.297 94.7791 419.293 94.7818C419.283 94.7869 419.251 94.806 419.229 94.8203C419.08 94.9407 418.957 96.2237 420.02 96.6257C420.081 96.6086 420.156 96.5815 420.172 96.575C420.179 96.5719 420.19 96.5669 420.194 96.565C420.197 96.5638 420.202 96.5617 420.203 96.5608C420.21 96.5579 420.215 96.5555 420.215 96.5552C420.217 96.5544 420.218 96.5537 420.219 96.5533C420.221 96.5525 420.222 96.5518 420.223 96.5513C420.225 96.5502 420.228 96.5491 420.23 96.5479C420.24 96.5431 420.257 96.5349 420.277 96.5248C420.318 96.5045 420.376 96.4756 420.428 96.4496C420.479 96.4244 420.528 96.3997 420.549 96.3893C420.552 96.3879 420.556 96.3857 420.561 96.3834C420.563 96.3824 420.567 96.3799 420.573 96.3768C420.576 96.3754 420.582 96.3719 420.591 96.3674C420.594 96.3652 420.602 96.3609 420.612 96.3552C420.616 96.3527 420.643 96.3371 420.675 96.3147C420.696 96.2997 420.757 96.2509 420.796 96.2154C420.901 96.0986 421.091 95.3309 420.787 94.7624C420.46 94.5584 419.986 94.5004 419.895 94.5156C419.858 94.5242 419.802 94.5402 419.783 94.5465C419.752 94.5571 419.728 94.567 419.723 94.5691C419.713 94.573 419.706 94.5762 419.702 94.5779C419.689 94.5838 419.678 94.5888 419.677 94.5892C419.671 94.5921 419.666 94.5948 419.663 94.5961C419.651 94.6021 419.629 94.6129 419.597 94.6284L420.48 96.4231ZM420.157 96.5807L420.199 96.5639L419.456 94.7068L419.414 94.7237L420.157 96.5807ZM420.233 96.5493L421.553 95.9633L420.741 94.1355L419.422 94.7214L420.233 96.5493ZM421.495 95.9868C422.469 95.6249 423.37 95.1802 424.222 94.7628L423.341 92.9669C422.473 93.3926 421.663 93.791 420.799 94.112L421.495 95.9868ZM424.203 94.7716C426.015 93.929 427.66 92.8415 429.252 91.8906L428.226 90.1737C426.53 91.1872 425.047 92.1736 423.36 92.9581L424.203 94.7716ZM429.306 91.8558C430.876 90.7753 432.463 89.6104 433.931 88.2609L432.577 86.7888C431.211 88.0445 429.713 89.1475 428.172 90.2084L429.306 91.8558ZM433.909 88.28C436.908 85.6764 439.54 82.4953 441.843 78.8527L440.152 77.7841C437.936 81.2908 435.425 84.3148 432.598 86.7698L433.909 88.28ZM441.845 78.8496C446.438 71.5227 449.573 62.3472 451.283 52.1586L449.31 51.8275C447.631 61.8307 444.569 70.7394 440.15 77.7872L441.845 78.8496ZM449.428 52.4887C450.012 53.5116 451.295 56.5663 452.355 60.8612C453.41 65.1372 454.226 70.5762 453.922 76.3633C453.318 87.8901 448.285 100.813 431.682 108.792L432.549 110.595C449.935 102.24 455.285 88.576 455.92 76.468C456.236 70.4377 455.386 64.7972 454.297 60.3822C453.212 55.9861 451.873 52.7382 451.165 51.4973L449.428 52.4887ZM431.682 108.793C413.991 117.298 399.161 115.6 388.827 111.742L388.128 113.615C398.905 117.639 414.307 119.365 432.549 110.595L431.682 108.793ZM388.093 111.755C384.831 113.115 381.365 114.46 377.803 115.83L378.521 117.696C382.083 116.326 385.573 114.973 388.862 113.601L388.093 111.755ZM377.803 115.83C360.054 122.659 337.676 131.254 321.919 149.909L323.447 151.199C338.825 132.994 360.709 124.55 378.521 117.696L377.803 115.83ZM321.919 149.909C309.921 164.113 304.841 183.244 304.242 202.496C303.642 221.756 307.522 241.246 313.564 256.287L315.42 255.542C309.478 240.75 305.65 221.534 306.241 202.559C306.831 183.576 311.838 164.943 323.447 151.199L321.919 149.909ZM314.492 256.914H523.35V254.914H314.492V256.914ZM524.241 256.369C542.387 220.847 560 155.406 560 79.6926H558C558 155.144 540.439 220.264 522.459 255.459L524.241 256.369ZM560 79.6926C560 23.5323 532.414 -11.0473 515.958 -26.6712L514.581 -25.2208C530.785 -9.83603 558 24.2537 558 79.6926H560ZM515.957 -26.6714C495.239 -46.3331 470.051 -57.504 448.348 -56.3726L448.452 -54.3753C469.442 -55.4696 494.122 -44.6359 514.581 -25.2207L515.957 -26.6714ZM448.348 -56.3726C442.461 -56.0684 435.268 -53.5278 429.576 -51.5064L430.245 -49.6218C436.02 -51.6725 442.915 -54.0892 448.451 -54.3752L448.348 -56.3726ZM430.681 -51.2022C418.919 -65.3955 400.165 -75.8942 384.102 -76.5145L384.025 -74.516C399.401 -73.9222 417.659 -63.7821 429.141 -49.926L430.681 -51.2022ZM384.103 -76.5145L371.574 -76.9993L371.497 -75.0007L384.025 -74.516L384.103 -76.5145ZM370.545 -75.8662L378.229 -18.9621L380.211 -19.2298L372.527 -76.1338L370.545 -75.8662ZM378.771 -19.9894L354.499 -7.78571L355.397 -5.99884L379.67 -18.2025L378.771 -19.9894ZM354.002 -7.21695L346.966 13.2785L348.858 13.9278L355.894 -6.5676L354.002 -7.21695ZM347.28 12.8288L293.234 56.9981L294.499 58.5467L348.545 14.3774L347.28 12.8288ZM292.941 58.1513L314.503 110.815L316.354 110.057L294.792 57.3935L292.941 58.1513ZM315.723 111.391L375.755 92.8983L375.166 90.987L315.134 109.48L315.723 111.391Z" fill="#FF0000" fill-opacity="0.2" mask="url(#path-3-inside-1_115_5)"/>
<path d="M291.5 345.519V308.335L316.472 290.138H520.783L546.284 308.338V345.519H291.5Z" stroke="#FF0000" stroke-opacity="0.2"/>
</g>
</svg>
