<svg width="534" height="354" viewBox="0 0 534 354" fill="none" xmlns="http://www.w3.org/2000/svg">
<rect width="530" height="346" rx="20" fill="black"/>
<mask id="mask0_115_6" style="mask-type:alpha" maskUnits="userSpaceOnUse" x="0" y="0" width="530" height="346">
<rect width="530" height="346" rx="20" fill="black"/>
</mask>
<g mask="url(#mask0_115_6)">
<path d="M457.889 83.4629H458.389V82.9629V12.457C458.389 2.55597 466.445 -5.5 476.346 -5.5H550.543C560.444 -5.5 568.5 2.55597 568.5 12.457V353.543C568.5 363.444 560.444 371.5 550.543 371.5H209.457C199.556 371.5 191.5 363.444 191.5 353.543V279.346C191.5 269.445 199.556 261.389 209.457 261.389H279.963H280.463V260.889V190.383C280.463 180.482 288.519 172.426 298.42 172.426H368.926H369.426V171.926V101.42C369.426 91.5189 377.482 83.4629 387.383 83.4629H457.889Z" stroke="#FF002E" stroke-opacity="0.2"/>
<path d="M320.241 16.6928L321.095 15.8393H319.888H288.934C283.041 15.8393 278.264 11.0621 278.264 5.16963C278.264 -0.722841 283.041 -5.5 288.934 -5.5H346.854C352.746 -5.5 357.523 -0.722841 357.523 5.16963V63.0894C357.523 68.9818 352.746 73.759 346.854 73.759C340.961 73.759 336.184 68.9818 336.184 63.0894V32.1354V30.9283L335.33 31.7818L244.876 122.235L245.23 122.589L244.876 122.235C242.793 124.318 240.063 125.36 237.332 125.36C234.601 125.36 231.872 124.319 229.788 122.235C225.621 118.068 225.621 111.312 229.788 107.146L229.435 106.793L229.788 107.146L320.241 16.6928Z" stroke="#FF002E" stroke-opacity="0.2"/>
</g>
</svg>
