<svg width="530" height="346" viewBox="0 0 530 346" fill="none" xmlns="http://www.w3.org/2000/svg">
<rect width="530" height="346" rx="20" fill="black"/>
<mask id="mask0_115_7" style="mask-type:alpha" maskUnits="userSpaceOnUse" x="0" y="0" width="530" height="346">
<rect width="530" height="346" rx="20" fill="black"/>
</mask>
<g mask="url(#mask0_115_7)">
<path d="M331.005 310.644L422.802 -13.0894L331.005 310.644ZM331.005 310.644C327.614 322.661 334.532 335.194 346.428 338.632M331.005 310.644L346.428 338.632M346.428 338.632C358.345 342.047 370.784 335.082 374.198 323.089L465.995 -0.64395C469.387 -12.6612 462.467 -25.1944 450.571 -28.632C438.654 -32.046 426.216 -25.0818 422.803 -13.0899L346.428 338.632ZM224.051 154.648L223.701 155L224.051 155.352L299.623 231.499C308.38 240.323 308.38 254.669 299.623 263.492C290.868 272.313 276.637 272.313 267.883 263.492L176.085 170.996L176.084 170.996C167.305 162.173 167.305 147.827 176.084 139.004L176.085 139.004L267.883 46.5081C276.637 37.6868 290.868 37.6868 299.623 46.5081C308.38 55.3315 308.38 69.6775 299.623 78.5008L224.051 154.648ZM572.949 155.352L573.299 155L572.949 154.648L497.377 78.5008C488.62 69.6775 488.62 55.3315 497.377 46.5081C506.131 37.6868 520.363 37.6868 529.117 46.5081L620.915 139.004L620.916 139.004C629.695 147.827 629.695 162.173 620.916 170.996L620.915 170.996L529.117 263.492C520.363 272.313 506.131 272.313 497.377 263.492C488.62 254.669 488.62 240.323 497.377 231.499L572.949 155.352Z" stroke="#FF002E" stroke-opacity="0.2"/>
</g>
</svg>
