<svg width="530" height="346" viewBox="0 0 530 346" fill="none" xmlns="http://www.w3.org/2000/svg">
<rect width="530" height="346" rx="20" fill="black"/>
<mask id="mask0_115_3" style="mask-type:alpha" maskUnits="userSpaceOnUse" x="0" y="0" width="530" height="346">
<rect width="530" height="346" rx="20" fill="black"/>
</mask>
<g mask="url(#mask0_115_3)">
<path d="M584.687 44.3511L584.688 44.3517C590.37 50.0221 593.5 57.5816 593.5 65.6345C593.5 73.6855 590.371 81.245 584.689 86.9154L584.688 86.916L543.971 127.688L543.971 127.688C538.318 133.368 530.769 136.501 522.729 136.501C514.689 136.501 507.14 133.368 501.477 127.678L501.477 127.677L379.305 5.34324L379.305 5.34262C373.632 -0.318108 370.503 -7.8766 370.503 -15.9287C370.503 -23.9807 373.632 -31.5392 379.314 -37.2096L379.315 -37.2102L420.032 -77.9818L420.032 -77.9824C431.33 -89.336 451.207 -89.3456 462.526 -77.9728L462.526 -77.9722L584.687 44.3511Z" stroke="#FF002E" stroke-opacity="0.2"/>
<path d="M370.085 26.5071L370.084 26.5066C366.907 23.3204 361.972 22.754 358.183 25.0974L358.181 25.0984C328.413 43.3477 281.746 65.1237 228.56 65.1237C224.239 65.1237 220.438 67.9882 219.247 72.1493C219.247 72.1493 219.247 72.1494 219.247 72.1495L146.871 325.471C146.871 325.471 146.871 325.472 146.871 325.472C145.651 329.764 147.513 334.33 151.389 336.543C155.259 338.728 160.156 338.035 163.217 334.776L163.218 334.775L284.334 206.538C288.292 202.337 290.171 196.412 289.461 190.263L289.461 190.263C288.036 177.773 293.762 166.379 304.744 159.808L304.745 159.807C314.416 154.041 327.238 154.326 336.752 160.483L336.754 160.484C344.98 165.843 350.077 174.04 351.067 183.551M370.085 26.5071L350.57 183.603M370.085 26.5071L480.493 136.916C483.661 140.083 484.238 145.009 481.902 148.82C463.653 178.588 441.877 225.255 441.877 278.442C441.877 282.763 439.012 286.563 434.851 287.755M370.085 26.5071L181.534 360.131M351.067 183.551L350.57 183.603M351.067 183.551C351.067 183.551 351.067 183.551 351.067 183.551L350.57 183.603M351.067 183.551C352.047 192.918 348.792 202.106 342.143 208.755C335.48 215.418 326.26 218.579 316.708 217.519L316.704 217.519C310.43 216.779 304.694 218.665 300.472 222.665L300.471 222.665L172.228 343.785C168.985 346.848 168.257 351.727 170.46 355.613M350.57 183.603C351.534 192.82 348.332 201.859 341.79 208.401C335.237 214.954 326.169 218.066 316.763 217.022C310.349 216.266 304.464 218.195 300.128 222.302L171.885 343.421C168.474 346.643 167.709 351.773 170.025 355.86M170.46 355.613C170.46 355.613 170.46 355.612 170.46 355.612L170.025 355.86M170.46 355.613L170.025 355.86M170.46 355.613C172.219 358.695 175.461 360.5 178.875 360.5C179.753 360.5 180.652 360.378 181.533 360.131L181.531 360.132L181.669 360.613M170.025 355.86C171.875 359.102 175.285 361 178.875 361C179.8 361 180.744 360.871 181.669 360.613M181.669 360.613L181.534 360.131M181.669 360.613L434.989 288.236C439.364 286.983 442.377 282.986 442.377 278.442C442.377 225.386 464.103 178.811 482.329 149.081C484.785 145.074 484.178 139.894 480.847 136.562L370.438 26.1536C367.098 22.8031 361.907 22.2065 357.92 24.6721L181.534 360.131M181.534 360.131L434.851 287.755M434.851 287.755L434.984 288.216L434.852 287.755L434.851 287.755Z" stroke="#FF002E" stroke-opacity="0.2"/>
</g>
</svg>
