<svg width="77" height="62" viewBox="0 0 77 62" fill="none" xmlns="http://www.w3.org/2000/svg">
<path fill-rule="evenodd" clip-rule="evenodd" d="M42.4962 2.81073L27.0966 57.0581C26.5152 59.1157 27.701 61.2623 29.7415 61.8513C31.7858 62.4364 33.9186 61.2429 34.5038 59.1893L49.9034 4.94188C50.4847 2.88435 49.299 0.737706 47.2585 0.148734C45.2142 -0.436363 43.0814 0.757079 42.4962 2.81073ZM9.29463 31L21.9724 43.7598C23.4738 45.2709 23.4738 47.7276 21.9724 49.2388C20.4709 50.7499 18.0301 50.7499 16.5286 49.2388L1.12898 33.7395C-0.376328 32.2283 -0.376328 29.7717 1.12898 28.2605L16.5286 12.7613C18.0301 11.2501 20.4709 11.2501 21.9724 12.7613C23.4738 14.2724 23.4738 16.7291 21.9724 18.2402L9.29463 31ZM67.7054 31L55.0276 18.2402C53.5262 16.7291 53.5262 14.2724 55.0276 12.7613C56.5291 11.2501 58.9699 11.2501 60.4714 12.7613L75.871 28.2605C77.3763 29.7717 77.3763 32.2283 75.871 33.7395L60.4714 49.2388C58.9699 50.7499 56.5291 50.7499 55.0276 49.2388C53.5262 47.7276 53.5262 45.2709 55.0276 43.7598L67.7054 31Z" fill="#FF002E"/>
</svg>
