<svg width="77" height="78" viewBox="0 0 77 78" fill="none" xmlns="http://www.w3.org/2000/svg">
<path d="M74.9705 65.1363L61.2256 51.4238C61.1563 51.3545 61.0747 51.3037 61.0023 51.2544C59.7672 53.1533 58.2903 54.9582 56.624 56.6245C54.9592 58.2909 53.1512 59.7678 51.2323 61.006C51.3001 61.0768 51.3509 61.16 51.4202 61.2277L65.1373 74.971C67.8524 77.6815 72.2615 77.6784 74.9674 74.971C77.6763 72.2606 77.6779 67.8499 74.9705 65.1363Z" fill="#FF002E"/>
<path d="M54.665 9.36228C42.1784 -3.12127 21.8653 -3.12127 9.37711 9.36536C-3.12339 21.8489 -3.12493 42.1774 9.36787 54.6656C21.8607 67.1476 42.1784 67.1476 54.665 54.6641C67.1517 42.1774 67.1501 21.8474 54.665 9.36228ZM15.2539 48.7858C6.00904 39.5409 6.01212 24.4901 15.257 15.2545C24.5018 6.01116 39.5434 6.01116 48.7852 15.2499C58.0239 24.4901 58.0208 39.524 48.7852 48.7827C39.5419 57.9983 24.5018 58.0322 15.2539 48.7858Z" fill="#FF002E"/>
<path d="M21.8375 34.5958C21.1583 31.8052 18.3616 27.9336 16.0084 29.1672C14.1434 30.1189 14.6686 34.4834 15.5479 37.0645C19.4781 48.8011 33.7712 51.2821 35.2574 49.7975C36.7189 48.3376 24.5294 45.6394 21.8375 34.5958Z" fill="#FF002E"/>
</svg>
