<svg width="64" height="64" viewBox="0 0 64 64" fill="none" xmlns="http://www.w3.org/2000/svg">
<path d="M62.7203 18.714L45.2687 1.23921C43.6238 -0.413524 40.7389 -0.41216 39.0969 1.23784L33.2803 7.06235C32.455 7.88586 32.0005 8.98386 32.0005 10.153C32.0005 11.3222 32.455 12.4202 33.2789 13.2424L50.732 30.7186C51.5544 31.545 52.651 32.0002 53.8185 32.0002C54.9861 32.0002 56.0827 31.545 56.9037 30.7201L62.7204 24.8956C63.5457 24.0721 64.0002 22.974 64.0002 21.8049C64.0002 20.6356 63.5455 19.5375 62.7203 18.714Z" fill="#FF002E"/>
<path d="M32.0627 16.1648C31.5855 15.6862 30.8439 15.6009 30.2744 15.9532C26.0272 18.5569 19.3738 21.6605 11.7943 21.6605C11.1453 21.6605 10.5742 22.0909 10.3953 22.716L0.055833 58.9049C-0.127438 59.5498 0.152378 60.2358 0.734783 60.5683C1.31569 60.8964 2.0515 60.7927 2.51173 60.3026L19.8141 41.983C20.395 41.3665 20.6692 40.4987 20.5655 39.6008C20.3651 37.8452 21.1691 36.2442 22.7145 35.3196C24.0724 34.5098 25.875 34.5496 27.2116 35.4147C28.3694 36.169 29.0853 37.321 29.2244 38.6576C29.3621 39.9743 28.9047 41.2656 27.9701 42.2002C27.034 43.1363 25.7385 43.5809 24.3948 43.4317C23.4786 43.3237 22.6378 43.5993 22.0184 44.1859L3.69794 61.4887C3.21072 61.949 3.10136 62.6819 3.43231 63.2657C3.69658 63.7288 4.18367 64 4.69653 64C4.82866 64 4.96353 63.9816 5.09566 63.9447L41.2843 53.6051C41.9092 53.4261 42.3397 52.8551 42.3397 52.206C42.3397 44.6265 45.4433 37.9731 48.0471 33.7259C48.3979 33.1534 48.3113 32.4134 47.8354 31.9375L32.0627 16.1648Z" fill="#FF002E"/>
</svg>
