<svg width="78" height="76" viewBox="0 0 78 76" fill="none" xmlns="http://www.w3.org/2000/svg">
<path d="M63.6114 43.4754C51.6638 43.9456 40.3521 47.081 30.2736 52.2773L17.3139 59.8295C13.8865 61.824 9.50944 60.6269 7.54249 57.1859L0.956181 45.6763C-1.015 42.229 0.159909 37.8043 3.57575 35.8149L14.3129 29.5578C14.9347 29.1955 15.7298 29.4104 16.0889 30.038L24.5258 44.7858C24.8911 45.4242 25.7079 45.6361 26.3348 45.2461C26.9411 44.8689 27.1067 44.0492 26.7505 43.4267L18.2527 28.5723C17.9151 27.9823 18.0809 27.229 18.6359 26.8408C27.5 20.6387 34.9992 12.7392 40.7584 3.52651C42.9402 0.0334666 48.0241 0.126946 50.0748 3.71019L68.1112 35.2409C70.161 38.8165 67.7069 43.3147 63.6114 43.4754ZM65.9258 21.5154C66.5935 17.6584 64.3536 13.79 60.7331 12.4659C59.5951 12.0496 58.5627 13.2995 59.1677 14.3574C60.6082 16.876 62.0538 19.4032 63.5155 21.9574C64.1262 23.0242 65.7157 22.7292 65.9258 21.5154ZM35.9158 67.9394L29.7465 57.1312C29.388 56.5031 28.5919 56.2878 27.9696 56.6501C24.6261 58.5969 24.4997 58.6725 20.0397 61.2706C19.4178 61.6329 19.204 62.4358 19.5631 63.0635L25.743 73.8647C26.5352 75.2479 27.9599 76 29.4107 76C30.818 76 31.3562 75.5195 34.3687 73.7647C36.387 72.5888 37.0809 69.9746 35.9158 67.9394ZM75.418 11.5396C76.0398 11.1773 76.253 10.3748 75.8938 9.74738C75.535 9.12008 74.7402 8.90475 74.118 9.26719L70.7543 11.2272C69.6031 11.8979 70.0846 13.6757 71.4056 13.6757C71.8679 13.6755 71.7753 13.6621 75.418 11.5396ZM63.4639 4.74094L64.2842 1.65182C64.4701 0.951869 64.0585 0.232563 63.3651 0.0449463C62.671 -0.142342 61.9586 0.272743 61.7727 0.972697L60.9524 4.06181C60.7315 4.89362 61.3526 5.71379 62.2088 5.71379C62.7828 5.71362 63.3082 5.32708 63.4639 4.74094ZM77.9554 25.5488C78.1413 24.8489 77.7295 24.1294 77.0361 23.942L73.975 23.1142C73.2816 22.9271 72.5687 23.3422 72.3828 24.042C72.1969 24.7418 72.6086 25.4613 73.302 25.6489C76.6498 26.5542 76.466 26.5217 76.7003 26.5217C77.2743 26.5217 77.7997 26.135 77.9554 25.5488Z" fill="#FF002E"/>
</svg>
