<svg width="52" height="82" viewBox="0 0 52 82" fill="none" xmlns="http://www.w3.org/2000/svg">
<path d="M16.3878 32.5859C17.4241 33.048 19.3159 33.7375 21.4474 33.8414C21.5546 33.843 21.6691 33.8528 21.7746 33.8512C22.0993 33.8357 22.4158 33.825 22.734 33.7849C23.0514 33.7465 23.3753 33.7072 23.7033 33.6263C23.8701 33.6034 24.0378 33.5559 24.2079 33.5191C24.2823 33.5003 24.3494 33.4758 24.4263 33.4651L24.5433 33.4431L24.7134 33.3874L24.8835 33.3318L24.9686 33.304L25.0111 33.2901L25.0324 33.2827L25.0373 33.2811C25.0872 33.2566 24.9751 33.3122 24.9882 33.3056L24.9964 33.3024L25.2524 33.1887C25.4307 33.1224 25.5967 33.0406 25.7636 32.9588C26.103 32.801 26.4065 32.5998 26.7255 32.4092C27.0273 32.2015 27.3266 31.9814 27.6015 31.7287C28.1666 31.2379 28.6656 30.636 29.104 29.9424C29.9783 28.5478 30.5795 26.7934 30.9083 24.8345C31.4097 25.7129 33.9755 32.8607 27.3806 36.0301C23.8946 37.706 20.9616 37.374 18.9135 36.6092C18.278 36.8742 17.6032 37.136 16.9121 37.4018C13.4621 38.7293 9.16802 40.3823 6.14744 43.9582C1.5671 49.381 2.23289 58.6129 4.55823 64.4013H45.0828C48.5876 57.5406 52 44.8743 52 30.209C52 19.3822 46.6835 12.7203 43.5149 9.71197C39.5202 5.92091 34.6822 3.78615 30.5402 4.00208C29.4319 4.05933 28.0652 4.54027 26.9528 4.93532C24.6978 2.21411 21.1072 0.211841 18.0572 0.0940606L15.6263 0L17.1174 11.0411L12.4078 13.409L11.0427 17.3857L0.556152 25.9558L4.73981 36.1741L16.3878 32.5859Z" fill="#FF002E"/>
<path d="M4.91078 70.9446L0 74.523V81.8843H49.6297V74.523L44.6158 70.9446H4.91078Z" fill="#FF002E"/>
</svg>
