<svg width="60" height="60" viewBox="0 0 60 60" fill="none" xmlns="http://www.w3.org/2000/svg">
<path d="M57.0703 0H45.293C43.6775 0 42.3633 1.31426 42.3633 2.92969V14.1211H31.1719C29.5564 14.1211 28.2422 15.4354 28.2422 17.0508V28.2422H17.0508C15.4354 28.2422 14.1211 29.5564 14.1211 31.1719V42.3633H2.92969C1.31426 42.3633 0 43.6775 0 45.293V57.0703C0 58.6857 1.31426 60 2.92969 60H57.0703C58.6857 60 60 58.6857 60 57.0703V2.92969C60 1.31426 58.6857 0 57.0703 0Z" fill="#FF002E"/>
<path d="M24.7387 0H15.545C14.5659 0 13.7721 0.793812 13.7721 1.77296C13.7721 2.7521 14.5659 3.54591 15.545 3.54591H20.4584L6.10071 17.9036C5.40831 18.5958 5.40831 19.7185 6.10071 20.4109C6.44691 20.7571 6.90067 20.9302 7.35431 20.9302C7.80795 20.9302 8.26183 20.7571 8.60791 20.4109L22.9657 6.05323V10.9666C22.9657 11.9457 23.7595 12.7395 24.7387 12.7395C25.7178 12.7395 26.5116 11.9457 26.5116 10.9666V1.77296C26.5116 0.793812 25.7178 0 24.7387 0Z" fill="#FF002E"/>
</svg>
